<svg xmlns="http://www.w3.org/2000/svg" viewBox="0 0 920 560" role="img" aria-labelledby="title desc">
  <title id="title">Hallow local runtime map</title>
  <desc id="desc">A monochrome map showing Hallow as a local runtime connected to memory, tools, models, gateways, skills, and audits.</desc>
  <defs>
    <pattern id="grid" width="34" height="34" patternUnits="userSpaceOnUse">
      <path d="M34 0H0V34" fill="none" stroke="#d8d8d2" stroke-width="1"/>
    </pattern>
    <linearGradient id="fade" x1="0" y1="0" x2="1" y2="1">
      <stop offset="0" stop-color="#fff"/>
      <stop offset="1" stop-color="#d8d8d2"/>
    </linearGradient>
  </defs>
  <rect width="920" height="560" rx="34" fill="#f7f7f4"/>
  <rect width="920" height="560" rx="34" fill="url(#grid)" opacity=".55"/>
  <path d="M624 0h296v560H498z" fill="#101010"/>
  <g fill="none" stroke="#101010" stroke-width="2">
    <path d="M459 280H200M459 280h262M459 280V116M459 280v164"/>
    <path d="M459 280 251 124M459 280 251 436M459 280 688 126M459 280 688 434"/>
  </g>
  <g>
    <rect x="342" y="164" width="234" height="234" rx="32" fill="#050505"/>
    <rect x="366" y="188" width="186" height="186" rx="24" fill="#f7f7f4"/>
    <path d="M459 207c44 18 72 66 73 126 .5 39-22 80-52 102h-42c-30-22-53-63-52-102 1-60 29-108 73-126z" fill="#050505"/>
    <path d="M441 226v78c0 13 8 20 18 20s18-7 18-20v-78zM436 346c14-7 32-7 46 0v62c0 17-9 25-23 25s-23-8-23-25zM392 337c22-3 36 2 47 13-20 7-36 4-47-13zM526 337c-22-3-36 2-47 13 20 7 36 4 47-13z" fill="#f7f7f4"/>
    <text x="459" y="282" text-anchor="middle" font-family="Consolas, monospace" font-size="13" font-weight="700" fill="#f7f7f4">LOCAL</text>
  </g>
  <g font-family="Consolas, monospace" font-size="16" font-weight="700">
    <g>
      <rect x="52" y="82" width="218" height="84" rx="16" fill="url(#fade)" stroke="#101010"/>
      <text x="76" y="118" fill="#050505">memory vault</text>
      <text x="76" y="145" fill="#73736e" font-size="12">vectors / traces / notes</text>
    </g>
    <g>
      <rect x="52" y="394" width="218" height="84" rx="16" fill="url(#fade)" stroke="#101010"/>
      <text x="76" y="430" fill="#050505">signed skills</text>
      <text x="76" y="457" fill="#73736e" font-size="12">metadata / tests / repair</text>
    </g>
    <g>
      <rect x="616" y="82" width="242" height="84" rx="16" fill="#f7f7f4" stroke="#f7f7f4"/>
      <text x="640" y="118" fill="#050505">model routes</text>
      <text x="640" y="145" fill="#73736e" font-size="12">openai / claude / local</text>
    </g>
    <g>
      <rect x="616" y="394" width="242" height="84" rx="16" fill="#f7f7f4" stroke="#f7f7f4"/>
      <text x="640" y="430" fill="#050505">gateway lanes</text>
      <text x="640" y="457" fill="#73736e" font-size="12">cli / browser / chat</text>
    </g>
    <g>
      <rect x="50" y="238" width="188" height="84" rx="16" fill="url(#fade)" stroke="#101010"/>
      <text x="74" y="274" fill="#050505">mcp tools</text>
      <text x="74" y="301" fill="#73736e" font-size="12">stdio / http / filters</text>
    </g>
    <g>
      <rect x="682" y="238" width="188" height="84" rx="16" fill="#f7f7f4" stroke="#f7f7f4"/>
      <text x="706" y="274" fill="#050505">audit chain</text>
      <text x="706" y="301" fill="#73736e" font-size="12">doctor / policy / logs</text>
    </g>
  </g>
</svg>
